<svg xmlns="http://www.w3.org/2000/svg" id="Capa_1" style="fill: #82c49d;" viewBox="0 0 328.02 328.02" x="0px" y="0px" xmlns:xlink="http://www.w3.org/1999/xlink" version="1.1" xmlns:xml="http://www.w3.org/XML/1998/namespace" xml:space="preserve">
<g style="fill: #82c49d;">
	<path style="fill: #82c49d;" d="M 321.905 19.02 c -4.087 -4.094 -9.794 -6.157 -16.98 -6.157 c -29.139 0 -84.352 35.637 -137.386 88.684 c -15.971 15.971 -30.482 32.385 -43.381 48.85 l -0.096 -0.096 l -4.454 5.868 l -3.381 4.46 l 0.058 0.058 c -16.022 21.703 -27.327 41.37 -33.06 57.488 c -1.697 -0.212 -3.348 -0.366 -4.974 -0.366 c -25.187 0 -45.676 20.489 -45.676 45.669 c 0 1.208 0.064 2.397 0.161 3.593 c -0.386 9.846 -10.264 15.855 -21.241 21.626 c -6.652 3.496 -12.404 6.517 -11.375 12.764 c 1.105 6.71 8.728 8.606 25.842 11.337 c 9.839 1.562 19.229 2.359 27.918 2.359 c 32.77 0 46.755 -11.022 49.647 -13.67 c 12.783 -8.503 20.399 -22.648 20.399 -38.002 c 0 -1.973 -0.18 -3.972 -0.495 -6.041 c 15.99 -5.791 35.418 -17.025 56.8 -32.815 l 0.064 0.064 l 4.454 -3.387 c 0.077 -0.058 0.141 -0.122 0.219 -0.167 l 5.649 -4.293 l -0.09 -0.096 c 16.472 -12.899 32.88 -27.398 48.85 -43.375 c 30.823 -30.817 56.537 -63.169 72.398 -91.094 C 329.167 51.656 332.676 29.785 321.905 19.02 Z M 95.931 291.113 l -4.859 3.143 l 0.122 0.231 c -5.405 3.078 -17.05 7.828 -37.308 7.828 c -8.001 0 -16.716 -0.733 -25.894 -2.204 c -3.22 -0.514 -5.829 -0.97 -7.956 -1.388 c 10.444 -5.591 25.251 -14.692 25.566 -31.704 l 0.006 -0.334 l -0.039 -0.321 c -0.077 -0.938 -0.141 -1.902 -0.141 -2.866 c 0 -18.092 14.724 -32.815 32.822 -32.815 c 2.012 0 4.139 0.27 6.549 0.803 l 0.321 0.084 l 25.097 25.097 c 0.578 2.506 0.855 4.717 0.855 6.832 C 111.073 274.706 105.417 285.034 95.931 291.113 Z M 117.654 245.901 l -22.635 -22.635 c 5.039 -14.538 15.649 -33.162 30.431 -53.413 l 22.79 22.79 l 22.822 22.822 C 150.829 230.245 132.191 240.868 117.654 245.901 Z M 300.6 75.937 c -15.309 26.948 -40.277 58.324 -70.297 88.35 c -16.003 15.99 -32.411 30.56 -48.87 43.368 l -24.068 -24.056 l -24.101 -24.094 c 12.802 -16.459 27.372 -32.873 43.355 -48.863 c 55.746 -55.753 106.743 -84.918 128.305 -84.918 c 3.65 0 6.298 0.803 7.892 2.384 C 317.22 32.504 316.654 47.671 300.6 75.937 Z" />
</g>
<g style="fill: #82c49d;">
</g>
<g style="fill: #82c49d;">
</g>
<g style="fill: #82c49d;">
</g>
<g style="fill: #82c49d;">
</g>
<g style="fill: #82c49d;">
</g>
<g style="fill: #82c49d;">
</g>
<g style="fill: #82c49d;">
</g>
<g style="fill: #82c49d;">
</g>
<g style="fill: #82c49d;">
</g>
<g style="fill: #82c49d;">
</g>
<g style="fill: #82c49d;">
</g>
<g style="fill: #82c49d;">
</g>
<g style="fill: #82c49d;">
</g>
<g style="fill: #82c49d;">
</g>
<g style="fill: #82c49d;">
</g>
</svg>