<svg xmlns="http://www.w3.org/2000/svg" id="Capa_1" style="fill: #82c49d;" viewBox="0 0 389.981 389.981" x="0px" y="0px" xmlns:xlink="http://www.w3.org/1999/xlink" version="1.1" xmlns:xml="http://www.w3.org/XML/1998/namespace" xml:space="preserve">
<g style="fill: #82c49d;">
	<path style="fill: #82c49d;" d="M 145.407 248.988 l -2.775 26.209 c -0.224 2.115 0.46 4.225 1.883 5.806 c 1.422 1.581 3.449 2.483 5.576 2.483 h 79.301 c 2.126 0 4.153 -0.903 5.576 -2.483 c 1.422 -1.581 2.106 -3.691 1.883 -5.806 l -2.775 -26.209 h 98.777 c 15.374 0 27.881 -12.507 27.881 -27.881 V 27.881 C 360.733 12.507 348.225 0 332.852 0 H 40.63 C 25.256 0 12.749 12.507 12.749 27.881 v 193.226 c 0 15.374 12.507 27.881 27.881 27.881 H 145.407 Z M 221.055 268.487 h -62.629 l 2.064 -19.499 h 58.5 L 221.055 268.487 Z M 40.63 15 h 292.222 c 7.103 0 12.881 5.778 12.881 12.881 V 197.99 H 27.749 V 27.881 C 27.749 20.778 33.527 15 40.63 15 Z M 27.749 221.107 v -8.117 h 317.983 v 8.117 c 0 7.103 -5.778 12.881 -12.881 12.881 H 40.63 C 33.527 233.988 27.749 228.21 27.749 221.107 Z" />
	<path style="fill: #82c49d;" d="M 332.645 333.876 c 1.36 -2.24 1.453 -5.027 0.244 -7.352 l -14.813 -28.499 c -1.291 -2.483 -3.856 -4.041 -6.655 -4.041 H 62.061 c -2.798 0 -5.364 1.558 -6.655 4.041 l -14.813 28.499 c -1.208 2.325 -1.116 5.112 0.244 7.352 s 3.791 3.607 6.411 3.607 h 278.986 C 328.854 337.484 331.285 336.116 332.645 333.876 Z M 59.599 322.484 l 7.016 -13.499 h 240.251 l 7.017 13.499 H 59.599 Z" />
	<path style="fill: #82c49d;" d="M 345.733 350.982 h -12 c -17.368 0 -31.499 14.13 -31.499 31.499 c 0 4.142 3.358 7.5 7.5 7.5 h 59.997 c 4.142 0 7.5 -3.358 7.5 -7.5 C 377.232 365.113 363.102 350.982 345.733 350.982 Z M 319.04 374.981 c 2.735 -5.337 8.295 -8.999 14.693 -8.999 h 12 c 6.398 0 11.958 3.662 14.694 8.999 H 319.04 Z" />
</g>
<g style="fill: #82c49d;">
</g>
<g style="fill: #82c49d;">
</g>
<g style="fill: #82c49d;">
</g>
<g style="fill: #82c49d;">
</g>
<g style="fill: #82c49d;">
</g>
<g style="fill: #82c49d;">
</g>
<g style="fill: #82c49d;">
</g>
<g style="fill: #82c49d;">
</g>
<g style="fill: #82c49d;">
</g>
<g style="fill: #82c49d;">
</g>
<g style="fill: #82c49d;">
</g>
<g style="fill: #82c49d;">
</g>
<g style="fill: #82c49d;">
</g>
<g style="fill: #82c49d;">
</g>
<g style="fill: #82c49d;">
</g>
</svg>