<svg xmlns="http://www.w3.org/2000/svg" id="Layer_1" style="fill: #82c49d;" viewBox="0 0 462.994 462.994" x="0px" y="0px" xmlns:xlink="http://www.w3.org/1999/xlink" version="1.1" xmlns:xml="http://www.w3.org/XML/1998/namespace" xml:space="preserve">
<g style="fill: #82c49d;">
	<g style="fill: #82c49d;">
		<path style="fill: #82c49d;" d="M 462.853 270.051 c -0.583 -2.973 -2.904 -5.304 -5.873 -5.906 c -0.256 -0.052 -25.798 -5.389 -44.44 -22.201 c 1.57 -3.149 2.458 -6.695 2.458 -10.447 c 0 -2.997 -0.57 -5.862 -1.597 -8.5 h 2.713 c 12.619 0 22.885 -10.542 22.885 -23.5 v -16 c 0 -32.401 -22.267 -61.484 -62.699 -81.892 c -18.2 -9.186 -39.553 -16.38 -62.992 -21.379 c -0.185 -0.046 -0.37 -0.086 -0.556 -0.118 c -25.129 -5.315 -52.64 -8.111 -81.252 -8.111 c -55.548 0 -106.973 10.515 -144.801 29.608 C 46.267 122.013 24 151.096 24 183.497 v 16 c 0 11.174 7.636 20.544 17.829 22.915 c -1.177 2.796 -1.829 5.866 -1.829 9.085 c 0 5.584 1.961 10.716 5.226 14.753 c -13.309 4.639 -29.919 9.747 -37.726 9.747 c -3.346 0 -6.287 2.216 -7.209 5.432 s 0.397 6.655 3.234 8.428 l 21.711 13.569 C 15.018 288.64 8 299.261 8 311.497 c 0 15.424 11.146 28.285 25.805 30.974 C 32.644 345.252 32 348.3 32 351.497 c 0 21.78 17.72 39.5 39.5 39.5 h 320 c 21.78 0 39.5 -17.72 39.5 -39.5 c 0 -3.197 -0.644 -6.245 -1.805 -9.026 c 14.659 -2.689 25.805 -15.55 25.805 -30.974 c 0 -9.192 -4.063 -17.697 -10.648 -23.554 l 15.308 -10.206 C 462.18 276.057 463.437 273.024 462.853 270.051 Z M 438.12 274.068 l -11.625 7.751 c -0.392 0.213 -0.763 0.462 -1.113 0.742 l -16.257 10.838 c -1.505 1.004 -3.399 1.178 -5.064 0.465 l -49.607 -21.26 c -3.323 -1.425 -7.189 -0.275 -9.195 2.733 l -7.873 11.81 c -4.616 -4.413 -14.31 -14.942 -22.531 -32.15 h 12.644 c 6.177 0 11.801 -2.399 16 -6.31 c 4.199 3.911 9.823 6.31 16 6.31 h 9.877 c 1.596 4.873 4.544 9.721 8.827 14.484 c 4.346 4.833 8.513 7.821 8.974 8.146 c 1.312 0.925 2.816 1.369 4.306 1.369 c 2.349 0 4.662 -1.104 6.125 -3.167 c 2.391 -3.373 1.594 -8.05 -1.771 -10.45 c -2.243 -1.6 -6.862 -5.612 -9.912 -10.382 h 5.574 c 3.752 0 7.298 -0.888 10.448 -2.459 c 0.166 0.182 0.341 0.358 0.527 0.526 C 414.161 263.611 427.801 270.194 438.12 274.068 Z M 98.757 254.998 h 20.741 c 1.67 0 3.3 -0.178 4.873 -0.511 c -0.733 1.513 -1.611 2.964 -2.668 4.251 c -2.629 3.201 -2.166 7.927 1.035 10.556 c 1.396 1.146 3.081 1.705 4.756 1.705 c 2.167 0 4.317 -0.935 5.8 -2.74 c 3.987 -4.853 6.334 -10.635 7.719 -15.738 c 3.159 1.582 6.719 2.478 10.486 2.478 h 59.413 c 3.492 6.366 11.109 18.56 23.496 30.008 c 1.442 1.333 3.268 1.992 5.088 1.992 c 2.019 0 4.032 -0.81 5.51 -2.41 c 2.812 -3.042 2.625 -7.787 -0.417 -10.598 c -7.115 -6.577 -12.454 -13.498 -16.118 -18.992 h 11.027 c 6.177 0 11.801 -2.399 16 -6.31 c 4.199 3.911 9.823 6.31 16 6.31 h 26.927 c 6.424 15.334 14.165 26.65 20.49 34.271 l -33.276 -12.481 c -9.737 -3.651 -20.779 -1.259 -28.133 6.094 l -13.508 13.508 c -3.077 3.077 -7.881 3.473 -11.421 0.945 l -44.719 -31.942 c -2.032 -1.451 -4.654 -1.795 -6.993 -0.919 l -59.478 22.304 l -12.585 -12.585 c -2.639 -2.64 -6.817 -2.936 -9.803 -0.697 l -22.014 16.511 c -3.512 2.634 -8.373 2.84 -12.096 0.514 l -4.346 -2.716 C 69.784 281.297 84.653 269.886 98.757 254.998 Z M 63.499 239.997 c -4.687 0 -8.5 -3.813 -8.5 -8.5 s 3.813 -8.5 8.5 -8.5 h 56 c 4.687 0 8.5 3.813 8.5 8.5 s -3.813 8.5 -8.5 8.5 H 63.499 Z M 142.999 231.497 c 0 -4.687 3.813 -8.5 8.5 -8.5 h 88 c 4.687 0 8.5 3.813 8.5 8.5 s -3.813 8.5 -8.5 8.5 h -24.146 c -0.007 0 -0.015 0 -0.022 0 h -63.832 C 146.812 239.997 142.999 236.184 142.999 231.497 Z M 262.999 231.497 c 0 -4.687 3.813 -8.5 8.5 -8.5 h 56 c 4.687 0 8.5 3.813 8.5 8.5 s -3.813 8.5 -8.5 8.5 h -56 C 266.812 239.997 262.999 236.184 262.999 231.497 Z M 350.999 231.497 c 0 -4.687 3.813 -8.5 8.5 -8.5 h 32 c 4.687 0 8.5 3.813 8.5 8.5 s -3.813 8.5 -8.5 8.5 h -32 C 354.812 239.997 350.999 236.184 350.999 231.497 Z M 38.999 199.497 v -16 c 0 -17.311 8.2 -33.281 22.851 -47.042 l 36.346 36.346 c 1.464 1.464 3.384 2.197 5.303 2.197 c 1.919 0 3.839 -0.732 5.303 -2.197 c 2.929 -2.929 2.929 -7.678 0 -10.606 l -35.281 -35.281 c 5.042 -3.611 10.584 -7.021 16.57 -10.217 l 56.104 56.104 c 1.464 1.464 3.384 2.197 5.303 2.197 s 3.839 -0.732 5.303 -2.197 c 2.929 -2.929 2.929 -7.678 0 -10.606 l -52.371 -52.371 c 6.144 -2.639 12.654 -5.076 19.486 -7.301 l 70.279 70.279 c 1.464 1.464 3.384 2.197 5.303 2.197 s 3.839 -0.732 5.303 -2.197 c 2.929 -2.929 2.929 -7.678 0 -10.606 l -64.444 -64.447 c 7.058 -1.815 14.397 -3.419 21.99 -4.797 l 79.849 79.849 c 1.464 1.464 3.384 2.197 5.303 2.197 c 1.919 0 3.839 -0.732 5.303 -2.197 c 2.929 -2.929 2.929 -7.678 0 -10.606 l -72.069 -72.069 c 7.94 -1.009 16.108 -1.784 24.478 -2.309 l 84.985 84.985 c 1.464 1.464 3.384 2.197 5.303 2.197 s 3.839 -0.732 5.303 -2.197 c 2.929 -2.929 2.929 -7.678 0 -10.606 L 225.648 87.04 c 1.942 -0.026 3.891 -0.043 5.85 -0.043 c 7.271 0 14.419 0.187 21.437 0.543 l 85.26 85.26 c 1.464 1.464 3.384 2.197 5.303 2.197 s 3.839 -0.732 5.303 -2.197 c 2.929 -2.929 2.929 -7.678 0 -10.606 l -72.819 -72.819 c 11.01 1.209 21.605 2.865 31.717 4.93 l 78.496 78.496 c 1.464 1.464 3.384 2.197 5.303 2.197 s 3.839 -0.732 5.303 -2.197 c 2.929 -2.929 2.929 -7.678 0 -10.606 l -60.593 -60.593 c 53.585 16.757 87.79 46.53 87.79 81.896 v 16 c 0 4.687 -3.537 8.5 -7.885 8.5 H 46.883 C 42.536 207.997 38.999 204.184 38.999 199.497 Z M 64.915 254.997 h 12.454 c -12.957 11.91 -25.207 20.469 -30.72 24.124 L 27.911 267.41 C 43.006 263.357 59.61 257.059 64.915 254.997 Z M 391.499 375.997 h -320 c -13.509 0 -24.5 -10.991 -24.5 -24.5 c 0 -4.687 3.813 -8.5 8.5 -8.5 h 352 c 4.687 0 8.5 3.813 8.5 8.5 C 415.999 365.006 405.008 375.997 391.499 375.997 Z M 423.499 327.997 h -384 c -9.098 0 -16.5 -7.402 -16.5 -16.5 c 0 -9.098 7.402 -16.5 16.5 -16.5 h 4.249 l 13.191 8.244 c 8.939 5.587 20.611 5.091 29.046 -1.233 l 9.348 -7.011 h 13.06 l 5.803 5.803 c 2.08 2.08 5.183 2.752 7.937 1.719 l 20.06 -7.522 h 61.303 l 20.364 14.545 c 4.197 2.998 9.052 4.468 13.879 4.468 c 6.137 0 12.23 -2.376 16.866 -7.013 l 12.001 -12 h 24.727 c 0.042 0 0.082 -0.006 0.124 -0.006 l 29.911 11.217 c 10.051 3.77 21.23 0.164 27.185 -8.769 l 1.628 -2.442 h 18.447 l 29.526 12.654 c 6.341 2.717 13.554 2.055 19.293 -1.771 l 13.582 -9.055 c 5.401 2.784 8.97 8.427 8.97 14.672 C 439.999 320.595 432.597 327.997 423.499 327.997 Z" />
	</g>
</g>
<g style="fill: #82c49d;">
</g>
<g style="fill: #82c49d;">
</g>
<g style="fill: #82c49d;">
</g>
<g style="fill: #82c49d;">
</g>
<g style="fill: #82c49d;">
</g>
<g style="fill: #82c49d;">
</g>
<g style="fill: #82c49d;">
</g>
<g style="fill: #82c49d;">
</g>
<g style="fill: #82c49d;">
</g>
<g style="fill: #82c49d;">
</g>
<g style="fill: #82c49d;">
</g>
<g style="fill: #82c49d;">
</g>
<g style="fill: #82c49d;">
</g>
<g style="fill: #82c49d;">
</g>
<g style="fill: #82c49d;">
</g>
</svg>