<svg xmlns="http://www.w3.org/2000/svg" id="Layer_1" style="fill: #82c49d;" viewBox="0 0 512 512" x="0px" y="0px" xmlns:xlink="http://www.w3.org/1999/xlink" version="1.1" xmlns:xml="http://www.w3.org/XML/1998/namespace" xml:space="preserve">
<g style="fill: #82c49d;">
	<g style="fill: #82c49d;">
		<g style="fill: #82c49d;">
			<path style="fill: #82c49d;" d="M 281.6 332.8 c 4.719 0 8.533 -3.823 8.533 -8.533 V 204.8 h 25.6 c 23.526 0 42.667 -19.14 42.667 -42.667 c 0 -23.526 -19.14 -42.667 -42.667 -42.667 c -23.526 0 -42.667 19.14 -42.667 42.667 v 25.6 h -34.133 v -25.6 c 0 -23.526 -19.14 -42.667 -42.667 -42.667 c -23.526 0 -42.667 19.14 -42.667 42.667 c 0 23.526 19.14 42.667 42.667 42.667 h 25.6 v 119.467 c 0 4.71 3.823 8.533 8.533 8.533 s 8.533 -3.823 8.533 -8.533 V 204.8 h 34.133 v 119.467 C 273.067 328.977 276.881 332.8 281.6 332.8 Z M 290.133 162.133 c 0 -14.114 11.486 -25.6 25.6 -25.6 s 25.6 11.486 25.6 25.6 s -11.486 25.6 -25.6 25.6 h -25.6 V 162.133 Z M 221.867 187.733 h -25.6 c -14.114 0 -25.6 -11.486 -25.6 -25.6 s 11.486 -25.6 25.6 -25.6 s 25.6 11.486 25.6 25.6 V 187.733 Z" />
			<path style="fill: #82c49d;" d="M 60.928 18.15 l 32.666 27.418 c 1.604 1.348 3.55 1.997 5.487 1.997 c 2.432 0 4.855 -1.033 6.536 -3.046 c 3.029 -3.61 2.56 -8.994 -1.05 -12.023 L 71.902 5.077 c -3.61 -3.021 -8.986 -2.551 -12.023 1.05 C 56.849 9.745 57.318 15.121 60.928 18.15 Z" />
			<path style="fill: #82c49d;" d="M 66.449 92.612 L 26.368 78.029 c -4.429 -1.604 -9.318 0.674 -10.94 5.103 c -1.604 4.429 0.674 9.327 5.103 10.94 l 40.081 14.583 c 0.964 0.35 1.946 0.521 2.918 0.521 c 3.482 0 6.758 -2.159 8.021 -5.623 C 73.165 99.123 70.878 94.225 66.449 92.612 Z" />
			<path style="fill: #82c49d;" d="M 412.894 47.565 c 1.928 0 3.874 -0.657 5.47 -1.997 l 32.683 -27.435 c 3.61 -3.029 4.087 -8.405 1.05 -12.023 c -3.004 -3.593 -8.388 -4.079 -12.015 -1.05 l -32.683 27.435 c -3.61 3.029 -4.079 8.405 -1.05 12.023 C 408.03 46.524 410.453 47.565 412.894 47.565 Z" />
			<path style="fill: #82c49d;" d="M 51.183 162.15 H 8.533 c -4.71 0 -8.533 3.823 -8.533 8.533 c 0 4.71 3.823 8.533 8.533 8.533 h 42.65 c 4.71 0 8.533 -3.823 8.533 -8.533 C 59.716 165.973 55.893 162.15 51.183 162.15 Z" />
			<path style="fill: #82c49d;" d="M 496.555 83.106 c -1.604 -4.42 -6.511 -6.716 -10.931 -5.094 l -40.09 14.592 c -4.437 1.613 -6.716 6.511 -5.103 10.94 c 1.263 3.465 4.531 5.615 8.021 5.615 c 0.964 0 1.954 -0.162 2.91 -0.521 l 40.098 -14.592 C 495.889 92.433 498.176 87.535 496.555 83.106 Z" />
			<path style="fill: #82c49d;" d="M 256 0 C 161.894 0 85.333 76.561 85.333 170.667 c 0 72.021 28.245 125.747 88.909 169.079 c 0.29 0.205 0.717 0.461 1.033 0.631 c 0.444 0.239 9.626 5.367 11.93 19.755 c -9.634 3.678 -16.538 12.954 -16.538 23.868 c 0 6.554 2.475 12.536 6.536 17.067 c -4.062 4.531 -6.536 10.513 -6.536 17.067 c 0 6.554 2.475 12.535 6.536 17.067 c -4.062 4.531 -6.536 10.513 -6.536 17.067 c 0 14.114 11.486 25.6 25.6 25.6 c 4.71 0 8.533 -3.823 8.533 -8.533 s -3.823 -8.533 -8.533 -8.533 c -4.702 0 -8.533 -3.831 -8.533 -8.533 c 0 -4.702 3.831 -8.533 8.533 -8.533 H 281.6 c 4.719 0 8.533 -3.823 8.533 -8.533 s -3.814 -8.533 -8.533 -8.533 h -85.333 c -4.702 0 -8.533 -3.831 -8.533 -8.533 s 3.831 -8.533 8.533 -8.533 H 281.6 c 4.719 0 8.533 -3.823 8.533 -8.533 s -3.814 -8.533 -8.533 -8.533 h -85.333 c -4.702 0 -8.533 -3.831 -8.533 -8.533 c 0 -4.702 3.831 -8.533 8.533 -8.533 H 281.6 c 4.719 0 8.533 -3.823 8.533 -8.533 s -3.814 -8.533 -8.533 -8.533 h -77.38 c -3.021 -21.487 -16.947 -30.797 -20.437 -32.811 c -56.286 -40.337 -81.382 -88.132 -81.382 -154.923 c 0 -84.693 68.907 -153.6 153.6 -153.6 s 153.6 68.907 153.6 153.6 c 0 66.79 -25.097 114.586 -81.382 154.923 c -3.925 2.261 -21.018 13.739 -21.018 41.344 c 0 4.71 3.814 8.533 8.533 8.533 c 4.71 0 8.533 3.831 8.533 8.533 c 0 4.702 -3.823 8.533 -8.533 8.533 c -4.719 0 -8.533 3.823 -8.533 8.533 s 3.814 8.533 8.533 8.533 c 4.71 0 8.533 3.831 8.533 8.533 s -3.823 8.533 -8.533 8.533 c -4.719 0 -8.533 3.823 -8.533 8.533 s 3.814 8.533 8.533 8.533 c 4.71 0 8.533 3.831 8.533 8.533 c 0 4.864 -3.669 8.533 -8.533 8.533 H 230.4 c -4.71 0 -8.533 3.823 -8.533 8.533 V 486.4 c 0 14.114 11.486 25.6 25.6 25.6 h 17.067 c 14.114 0 25.6 -11.486 25.6 -25.6 v -8.533 h 25.6 c 14.362 0 25.6 -11.247 25.6 -25.6 c 0 -6.554 -2.475 -12.535 -6.537 -17.067 c 4.062 -4.531 6.537 -10.513 6.537 -17.067 c 0 -6.554 -2.475 -12.535 -6.537 -17.067 c 4.062 -4.531 6.537 -10.513 6.537 -17.067 c 0 -10.914 -6.904 -20.19 -16.546 -23.868 c 2.304 -14.387 11.477 -19.507 11.827 -19.703 c 0.401 -0.196 0.785 -0.427 1.143 -0.683 c 60.655 -43.332 88.909 -97.058 88.909 -169.079 C 426.667 76.561 350.106 0 256 0 Z M 273.067 486.4 c 0 4.702 -3.823 8.533 -8.533 8.533 h -17.067 c -4.702 0 -8.533 -3.831 -8.533 -8.533 v -8.533 h 34.133 V 486.4 Z" />
			<path style="fill: #82c49d;" d="M 503.467 162.133 H 460.8 c -4.719 0 -8.533 3.823 -8.533 8.533 s 3.814 8.533 8.533 8.533 h 42.667 c 4.719 0 8.533 -3.823 8.533 -8.533 S 508.186 162.133 503.467 162.133 Z" />
		</g>
	</g>
</g>
<g style="fill: #82c49d;">
</g>
<g style="fill: #82c49d;">
</g>
<g style="fill: #82c49d;">
</g>
<g style="fill: #82c49d;">
</g>
<g style="fill: #82c49d;">
</g>
<g style="fill: #82c49d;">
</g>
<g style="fill: #82c49d;">
</g>
<g style="fill: #82c49d;">
</g>
<g style="fill: #82c49d;">
</g>
<g style="fill: #82c49d;">
</g>
<g style="fill: #82c49d;">
</g>
<g style="fill: #82c49d;">
</g>
<g style="fill: #82c49d;">
</g>
<g style="fill: #82c49d;">
</g>
<g style="fill: #82c49d;">
</g>
</svg>