<svg xmlns="http://www.w3.org/2000/svg" id="Capa_1" style="fill: #82c49d;" viewBox="0 0 470 470" x="0px" y="0px" xmlns:xlink="http://www.w3.org/1999/xlink" version="1.1" xmlns:xml="http://www.w3.org/XML/1998/namespace" xml:space="preserve">
<g style="fill: #82c49d;">
	<path style="fill: #82c49d;" d="M 367.497 223.141 c -4.142 0 -7.5 3.357 -7.5 7.5 V 360 h -87.5 c -4.142 0 -7.5 3.357 -7.5 7.5 V 455 h -235 V 15 h 330.839 c 1.249 2.406 3.763 4.05 6.661 4.05 c 4.142 0 7.5 -3.357 7.5 -7.5 V 7.5 c 0 -4.143 -3.358 -7.5 -7.5 -7.5 h -345 c -4.142 0 -7.5 3.357 -7.5 7.5 v 455 c 0 4.143 3.358 7.5 7.5 7.5 h 250 c 0.251 0 0.501 -0.013 0.749 -0.038 c 0.186 -0.019 0.368 -0.05 0.549 -0.082 c 0.059 -0.01 0.119 -0.015 0.178 -0.026 c 0.214 -0.043 0.423 -0.099 0.63 -0.158 c 0.026 -0.008 0.054 -0.013 0.08 -0.021 c 0.208 -0.063 0.41 -0.138 0.609 -0.218 c 0.027 -0.011 0.054 -0.019 0.081 -0.029 c 0.189 -0.079 0.371 -0.168 0.552 -0.261 c 0.037 -0.02 0.076 -0.035 0.112 -0.055 c 0.165 -0.088 0.323 -0.187 0.48 -0.287 c 0.05 -0.031 0.102 -0.059 0.151 -0.092 c 0.146 -0.098 0.285 -0.205 0.423 -0.313 c 0.055 -0.043 0.113 -0.081 0.167 -0.125 c 0.169 -0.139 0.33 -0.287 0.486 -0.439 c 0.018 -0.019 0.039 -0.033 0.057 -0.052 l 95 -95 c 0.015 -0.015 0.027 -0.031 0.042 -0.046 c 0.157 -0.16 0.308 -0.324 0.451 -0.498 c 0.039 -0.047 0.071 -0.098 0.109 -0.145 c 0.114 -0.146 0.227 -0.292 0.33 -0.446 c 0.028 -0.041 0.05 -0.085 0.077 -0.127 c 0.106 -0.164 0.209 -0.331 0.301 -0.504 c 0.017 -0.03 0.029 -0.063 0.045 -0.094 c 0.096 -0.187 0.188 -0.375 0.269 -0.569 c 0.009 -0.022 0.015 -0.045 0.024 -0.066 c 0.082 -0.204 0.159 -0.411 0.223 -0.623 c 0.008 -0.025 0.012 -0.052 0.02 -0.077 c 0.061 -0.208 0.116 -0.418 0.159 -0.632 c 0.012 -0.061 0.017 -0.122 0.028 -0.183 c 0.031 -0.181 0.063 -0.36 0.081 -0.545 c 0.025 -0.248 0.038 -0.498 0.038 -0.749 V 230.641 C 374.997 226.498 371.639 223.141 367.497 223.141 Z M 349.391 375 l -69.394 69.394 V 375 H 349.391 Z" />
	<path style="fill: #82c49d;" d="M 455.003 95.745 c 0 -10.04 -3.888 -19.457 -10.947 -26.518 l -28.284 -28.284 c -2.647 -2.646 -5.626 -4.848 -8.845 -6.565 c -5.365 -2.862 -11.396 -4.381 -17.671 -4.381 c -6.372 0 -12.49 1.571 -17.916 4.519 c -3.124 1.698 -6.021 3.849 -8.601 6.428 l -35.356 35.355 c -0.001 0.001 -26.352 26.353 -26.352 26.353 l -204.34 204.34 c -0.015 0.015 -0.028 0.032 -0.043 0.047 c -0.061 0.063 -0.117 0.13 -0.176 0.194 c -0.594 0.648 -1.078 1.392 -1.413 2.207 l -28.866 70.103 c -0.013 0.032 -0.027 0.063 -0.039 0.096 l -20.592 50.01 c -1.153 2.8 -0.509 6.018 1.632 8.159 c 0.179 0.18 0.366 0.348 0.56 0.506 c 1.355 1.107 3.037 1.69 4.745 1.69 c 0.961 0 1.931 -0.185 2.854 -0.564 l 50.03 -20.601 c 0.017 -0.007 0.034 -0.014 0.051 -0.021 l 70.127 -28.875 c 0.814 -0.336 1.557 -0.818 2.205 -1.412 c 0.066 -0.06 0.133 -0.116 0.196 -0.178 c 0.015 -0.015 0.031 -0.027 0.046 -0.042 l 204.337 -204.337 c 0.007 -0.008 61.71 -61.711 61.71 -61.711 C 451.115 115.202 455.003 105.785 455.003 95.745 Z M 104.352 403.04 L 81.96 380.648 l 24.205 -58.784 c 2.889 1.496 5.577 3.449 7.943 5.814 c 7.087 7.088 10.371 16.712 8.783 25.744 c -0.423 2.409 0.354 4.873 2.083 6.603 c 1.729 1.728 4.191 2.507 6.602 2.083 c 9.034 -1.586 18.657 1.696 25.744 8.783 c 2.366 2.366 4.32 5.054 5.816 7.943 L 104.352 403.04 Z M 301.032 183.969 c 1.464 1.464 3.384 2.196 5.303 2.196 s 3.839 -0.732 5.303 -2.196 l 30.052 -30.053 l 24.748 24.749 L 175.292 369.813 c -2.018 -3.443 -4.489 -6.652 -7.365 -9.528 c -5.88 -5.88 -13.012 -9.975 -20.57 -12.034 l 135.998 -135.997 c 2.929 -2.93 2.929 -7.678 0 -10.607 c -2.929 -2.928 -7.678 -2.928 -10.606 0 L 136.749 337.644 c -2.06 -7.559 -6.155 -14.69 -12.035 -20.571 c -2.876 -2.875 -6.084 -5.346 -9.527 -7.363 l 191.147 -191.147 l 24.748 24.748 l -30.052 30.052 C 298.103 176.291 298.103 181.039 301.032 183.969 Z M 316.942 107.954 l 15.744 -15.744 l 60.104 60.104 l -15.745 15.744 L 316.942 107.954 Z M 75.773 395.675 l 13.553 13.553 l -23.04 9.487 L 75.773 395.675 Z M 439.895 97.987 c -0.503 5.182 -2.748 9.97 -6.445 13.667 l -30.052 30.053 l -60.104 -60.104 l 30.053 -30.053 c 0.539 -0.539 1.1 -1.043 1.677 -1.516 c 0.25 -0.205 0.518 -0.382 0.776 -0.575 c 0.336 -0.251 0.666 -0.513 1.012 -0.743 c 0.372 -0.247 0.762 -0.462 1.147 -0.686 c 0.245 -0.143 0.483 -0.3 0.732 -0.433 c 0.545 -0.288 1.106 -0.545 1.673 -0.787 c 0.094 -0.04 0.184 -0.09 0.278 -0.129 c 2.69 -1.105 5.605 -1.686 8.615 -1.686 c 3.012 0 5.927 0.58 8.619 1.687 c 0.073 0.03 0.143 0.069 0.215 0.101 c 0.589 0.249 1.17 0.517 1.735 0.816 c 0.23 0.122 0.45 0.269 0.677 0.399 c 0.404 0.233 0.811 0.46 1.201 0.719 c 0.331 0.22 0.646 0.471 0.967 0.71 c 0.273 0.203 0.555 0.391 0.82 0.607 c 0.577 0.473 1.138 0.976 1.676 1.515 l 28.284 28.284 c 3.698 3.698 5.942 8.486 6.445 13.668 c 0.072 0.74 0.108 1.488 0.108 2.242 S 439.967 97.247 439.895 97.987 Z" />
</g>
<g style="fill: #82c49d;">
</g>
<g style="fill: #82c49d;">
</g>
<g style="fill: #82c49d;">
</g>
<g style="fill: #82c49d;">
</g>
<g style="fill: #82c49d;">
</g>
<g style="fill: #82c49d;">
</g>
<g style="fill: #82c49d;">
</g>
<g style="fill: #82c49d;">
</g>
<g style="fill: #82c49d;">
</g>
<g style="fill: #82c49d;">
</g>
<g style="fill: #82c49d;">
</g>
<g style="fill: #82c49d;">
</g>
<g style="fill: #82c49d;">
</g>
<g style="fill: #82c49d;">
</g>
<g style="fill: #82c49d;">
</g>
</svg>