<svg xmlns="http://www.w3.org/2000/svg" style="fill: #82c49d;" enable-background="new 0 0 446.978 446.978" viewBox="0 0 446.978 446.978" xmlns:xlink="http://www.w3.org/1999/xlink" version="1.1">
  <g style="fill: #82c49d;">
    <path style="fill: #82c49d;" d="m 396.212 80.894 h -38.218 v -44.272 c 0 -4.142 -3.358 -7.5 -7.5 -7.5 s -7.5 3.358 -7.5 7.5 v 44.272 h -20.594 v -19.178 c 0 -4.142 -3.358 -7.5 -7.5 -7.5 s -7.5 3.358 -7.5 7.5 v 19.178 h -209.887 v -26.475 c 0 -4.142 -3.358 -7.5 -7.5 -7.5 s -7.5 3.358 -7.5 7.5 v 26.476 h -31.747 c -27.993 -0.001 -50.766 22.773 -50.766 50.765 v 67.168 c 0 27.993 22.773 50.766 50.766 50.766 h 21.303 v 29.711 c 0 2.761 2.239 5 5 5 h 7.943 v 19.269 c 0 2.761 2.239 5 5 5 s 5 -2.239 5 -5 v -19.269 h 7.943 c 2.761 0 5 -2.239 5 -5 v -29.711 h 42.998 c 2.701 0 5.193 -1.452 6.525 -3.802 l 16.182 -28.556 h 80.35 v 114.432 h -246.51 c -4.142 0 -7.5 3.358 -7.5 7.5 v 71.188 c 0 4.142 3.358 7.5 7.5 7.5 h 431.978 c 4.142 0 7.5 -3.358 7.5 -7.5 v -278.696 c 0 -27.992 -22.773 -50.766 -50.766 -50.766 Z m -317.379 109.575 h 22.358 v 9.415 h -22.358 v -9.415 Z m 22.358 -10 h -22.358 v -61.188 h 22.358 v 61.188 Z m 0 -71.188 h -22.358 v -13.387 h 22.358 v 13.387 Z m -3.235 165.025 h -15.887 v -24.711 h 15.886 v 24.711 Z m 163.555 72.363 c 4.142 0 7.5 -3.358 7.5 -7.5 v -129.432 c 0 -4.142 -3.358 -7.5 -7.5 -7.5 h -92.22 c -2.701 0 -5.193 1.453 -6.525 3.802 l -16.182 28.556 h -95.817 c -19.722 0 -35.766 -16.044 -35.766 -35.766 v -67.169 c 0 -19.722 16.044 -35.766 35.766 -35.766 h 18.067 v 108.989 c 0 2.761 2.239 5 5 5 h 32.358 c 2.761 0 5 -2.239 5 -5 v -108.989 h 285.021 c 19.722 0 35.766 16.044 35.766 35.766 v 223.541 h -416.978 v -8.533 h 246.51 Z m -246.51 56.188 v -37.655 h 416.978 v 37.655 h -416.978 Z" />
    <path style="fill: #82c49d;" d="m 278.083 208.776 v 33.859 c 0 39.928 32.483 72.411 72.411 72.411 c 39.928 0 72.411 -32.483 72.411 -72.411 v -110.975 c 0 -14.719 -11.974 -26.693 -26.693 -26.693 h -140.905 c -24.316 0 -44.098 19.782 -44.098 44.098 s 19.782 44.098 44.098 44.098 h 7.164 c 8.608 0.001 15.612 7.004 15.612 15.613 Z m -22.776 -25.612 c -18.802 0 -34.098 -15.296 -34.098 -34.098 s 15.296 -34.098 34.098 -34.098 h 140.906 c 9.205 0 16.693 7.488 16.693 16.693 v 110.975 c 0 34.414 -27.998 62.411 -62.412 62.411 c -34.414 0 -62.411 -27.998 -62.411 -62.411 v -33.859 c 0 -14.123 -11.489 -25.612 -25.612 -25.612 h -7.164 Z" />
    <path style="fill: #82c49d;" d="m 350.494 285.905 c 10.396 0 20.791 -3.957 28.705 -11.87 c 15.828 -15.828 15.828 -41.581 0 -57.409 c -15.829 -15.828 -41.581 -15.827 -57.409 0 c -15.827 15.828 -15.827 41.581 0 57.409 c 7.914 7.913 18.309 11.87 28.704 11.87 Z m -21.633 -62.208 c 5.964 -5.964 13.799 -8.946 21.633 -8.946 c 7.834 0 15.668 2.982 21.633 8.946 c 11.929 11.928 11.929 31.338 0 43.266 c -11.929 11.928 -31.338 11.928 -43.266 0 c -11.928 -11.928 -11.928 -31.338 5.68434e-014 -43.266 Z" />
    <path style="fill: #82c49d;" d="m 258.274 125.46 c -12.57 0 -22.797 10.227 -22.797 22.796 c 0 12.57 10.227 22.797 22.797 22.797 s 22.797 -10.227 22.797 -22.797 c 0 -12.569 -10.227 -22.796 -22.797 -22.796 Z m 0 35.593 c -7.056 0 -12.797 -5.741 -12.797 -12.797 s 5.741 -12.796 12.797 -12.796 s 12.797 5.74 12.797 12.796 s -5.741 12.797 -12.797 12.797 Z" />
    <path style="fill: #82c49d;" d="m 172.525 115.753 h -37.212 c -2.761 0 -5 2.239 -5 5 v 51.772 c 0 2.761 2.239 5 5 5 h 37.212 c 2.761 0 5 -2.239 5 -5 v -51.772 c 2.84217e-014 -2.762 -2.238 -5 -5 -5 Z m -5 51.772 h -27.212 v -41.772 h 27.212 v 41.772 Z" />
    <path style="fill: #82c49d;" d="m 336.262 238.598 c 1.98 0 3.91 -0.8 5.31 -2.19 c 1.39 -1.4 2.19 -3.33 2.19 -5.31 c 0 -1.97 -0.8 -3.9 -2.19 -5.3 c -1.4 -1.4 -3.33 -2.2 -5.31 -2.2 c -1.97 0 -3.9 0.8 -5.3 2.2 c -1.4 1.4 -2.2 3.33 -2.2 5.3 c 0 1.98 0.8 3.91 2.2 5.31 c 1.4 1.39 3.33 2.19 5.3 2.19 Z" />
    <path style="fill: #82c49d;" d="m 325.745 143.507 h 49.498 c 2.761 0 5 -2.239 5 -5 s -2.239 -5 -5 -5 h -49.498 c -2.761 0 -5 2.239 -5 5 s 2.239 5 5 5 Z" />
    <path style="fill: #82c49d;" d="m 325.745 163.006 h 49.498 c 2.761 0 5 -2.239 5 -5 s -2.239 -5 -5 -5 h -49.498 c -2.761 0 -5 2.239 -5 5 s 2.239 5 5 5 Z" />
  </g>
</svg>