<svg xmlns="http://www.w3.org/2000/svg" id="Capa_1" style="fill: #82c49d;" viewBox="0 0 60 60" x="0px" y="0px" xmlns:xlink="http://www.w3.org/1999/xlink" version="1.1" xmlns:xml="http://www.w3.org/XML/1998/namespace" xml:space="preserve">
<g style="fill: #82c49d;">
	<path style="fill: #82c49d;" d="M 55.201 15.5 h -8.524 l -4 -10 H 17.323 l -4 10 H 12 v -5 H 6 v 5 H 4.799 C 2.152 15.5 0 17.652 0 20.299 v 29.368 C 0 52.332 2.168 54.5 4.833 54.5 h 50.334 c 2.665 0 4.833 -2.168 4.833 -4.833 V 20.299 C 60 17.652 57.848 15.5 55.201 15.5 Z M 8 12.5 h 2 v 3 H 8 V 12.5 Z M 58 49.667 c 0 1.563 -1.271 2.833 -2.833 2.833 H 4.833 C 3.271 52.5 2 51.229 2 49.667 V 20.299 C 2 18.756 3.256 17.5 4.799 17.5 H 6 h 6 h 2.677 l 4 -10 h 22.646 l 4 10 h 9.878 c 1.543 0 2.799 1.256 2.799 2.799 V 49.667 Z" />
	<path style="fill: #82c49d;" d="M 30 14.5 c -9.925 0 -18 8.075 -18 18 s 8.075 18 18 18 s 18 -8.075 18 -18 S 39.925 14.5 30 14.5 Z M 30 48.5 c -8.822 0 -16 -7.178 -16 -16 s 7.178 -16 16 -16 s 16 7.178 16 16 S 38.822 48.5 30 48.5 Z" />
	<path style="fill: #82c49d;" d="M 30 20.5 c -6.617 0 -12 5.383 -12 12 s 5.383 12 12 12 s 12 -5.383 12 -12 S 36.617 20.5 30 20.5 Z M 30 42.5 c -5.514 0 -10 -4.486 -10 -10 s 4.486 -10 10 -10 s 10 4.486 10 10 S 35.514 42.5 30 42.5 Z" />
	<path style="fill: #82c49d;" d="M 52 19.5 c -2.206 0 -4 1.794 -4 4 s 1.794 4 4 4 s 4 -1.794 4 -4 S 54.206 19.5 52 19.5 Z M 52 25.5 c -1.103 0 -2 -0.897 -2 -2 s 0.897 -2 2 -2 s 2 0.897 2 2 S 53.103 25.5 52 25.5 Z" />
</g>
<g style="fill: #82c49d;">
</g>
<g style="fill: #82c49d;">
</g>
<g style="fill: #82c49d;">
</g>
<g style="fill: #82c49d;">
</g>
<g style="fill: #82c49d;">
</g>
<g style="fill: #82c49d;">
</g>
<g style="fill: #82c49d;">
</g>
<g style="fill: #82c49d;">
</g>
<g style="fill: #82c49d;">
</g>
<g style="fill: #82c49d;">
</g>
<g style="fill: #82c49d;">
</g>
<g style="fill: #82c49d;">
</g>
<g style="fill: #82c49d;">
</g>
<g style="fill: #82c49d;">
</g>
<g style="fill: #82c49d;">
</g>
</svg>